<svg width="14" height="15" viewBox="0 0 14 15" fill="none" xmlns="http://www.w3.org/2000/svg">
<path d="M0.76 3.93571C1.35429 2.75232 2.26598 1.75751 3.39317 1.06248C4.52035 0.367448 5.81862 -0.000416835 7.14286 3.54451e-07C9.06786 3.54451e-07 10.685 0.707858 11.9214 1.86071L9.87357 3.90929C9.13286 3.20143 8.19143 2.84071 7.14286 2.84071C5.28214 2.84071 3.70714 4.09786 3.14643 5.78572C3.00357 6.21429 2.92214 6.67143 2.92214 7.14286C2.92214 7.61429 3.00357 8.07143 3.14643 8.5C3.70786 10.1886 5.28214 11.445 7.14286 11.445C8.10357 11.445 8.92143 11.1914 9.56143 10.7629C9.93246 10.5186 10.2501 10.2016 10.4951 9.83107C10.7402 9.46055 10.9076 9.04418 10.9871 8.60714H7.14286V5.84429H13.87C13.9543 6.31143 14 6.79857 14 7.305C14 9.48072 13.2214 11.3121 11.87 12.555C10.6886 13.6464 9.07143 14.2857 7.14286 14.2857C6.20474 14.2861 5.27574 14.1016 4.40896 13.7428C3.54218 13.3839 2.75461 12.8578 2.09126 12.1945C1.42791 11.5311 0.901783 10.7435 0.542953 9.87676C0.184124 9.00997 -0.000374901 8.08098 5.71939e-07 7.14286C5.71939e-07 5.99 0.275715 4.9 0.76 3.93571Z" fill="white"/>
</svg>
